<?xml version="1.0" encoding="utf-8"?>
<!-- Generator: Adobe Illustrator 16.0.0, SVG Export Plug-In . SVG Version: 6.00 Build 0)  -->
<!DOCTYPE svg PUBLIC "-//W3C//DTD SVG 1.1//EN" "http://www.w3.org/Graphics/SVG/1.1/DTD/svg11.dtd">
<svg version="1.1" xmlns="http://www.w3.org/2000/svg" xmlns:xlink="http://www.w3.org/1999/xlink" x="0px" y="0px" width="517px"
	 height="196px" viewBox="0 0 517 196" enable-background="new 0 0 517 196" xml:space="preserve">
<g id="Calque_1" display="none">
</g>
<g id="Calque_2">
	<path fill="#262D35" d="M463.264,180.378H54.765c-16.706,0-30.299-13.593-30.299-30.299V48.249
		c0-16.707,13.593-30.298,30.299-30.298h408.499c16.705,0,30.298,13.592,30.298,30.298v101.831
		C493.562,166.785,479.969,180.378,463.264,180.378z M54.765,24.01c-13.366,0-24.238,10.874-24.238,24.239v101.831
		c0,13.366,10.872,24.239,24.238,24.239h408.499c13.365,0,24.238-10.873,24.238-24.239V48.249c0-13.365-10.873-24.239-24.238-24.239
		H54.765z"/>
	<g>
		<g>
			<path fill="#262D35" d="M459.459,128.489c-4.832-7.491-7.897-16.697-7.986-25.612c-0.095-8.766,3.332-18.229,7.986-25.611
				c0.783-1.239-0.521-3.121-1.982-2.579c-10.928,4.06-18.894,14-20.168,25.454c-7.532-3.726-15.282-7.181-23.174-10.303
				c-7.819-9.639-18.91-17.373-30.438-21.697c-13.143-4.926-28.536-3.548-41.216-10.101c-1.042-0.542-2.204-0.06-2.58,1.049
				c-1.959,5.837-3.921,11.668-5.882,17.502c-1.667,0.386-3.329,0.826-4.978,1.348c-11.099,3.502-21.238,10.115-29.177,18.59
				c-1.592,1.707-3.16,3.518-4.461,5.462c-0.33,0.493-0.33,1.284,0,1.774c11.822,17.698,34.431,27.213,55.087,27.366
				c15.551,0.122,31.197-4.18,45.861-8.969c0.258-0.081,0.515-0.171,0.774-0.262c1.95,1.002,3.91,2,5.863,2.997
				c1.085,0.553,2.149,0.038,2.582-1.047c0.565-1.46,1.136-2.907,1.707-4.359c1.808,0.379,3.609,0.753,5.415,1.134
				c0.757,0.159,1.586-0.089,1.982-0.805c0.783-1.436,1.571-2.871,2.355-4.305c1.869,0.238,3.737,0.481,5.604,0.721
				c0.818,0.11,1.425-0.627,1.694-1.286c0.409-1.024,0.819-2.042,1.229-3.066c1.606-0.028,3.209-0.062,4.811-0.095
				c1.86-0.035,3.029-3.375,3.814-4.711c1.044-0.487,2.083-0.979,3.119-1.479c1.235,11.492,9.047,21.623,20.173,25.471
				C458.929,131.57,460.269,129.747,459.459,128.489z M342.629,61.989c11.301,5.11,24.514,5.119,36.296,8.297
				c10.261,2.772,20.254,9.068,28.024,16.817c-4.856-1.77-9.75-3.415-14.683-4.902c0.278-0.653,0.551-1.311,0.825-1.964
				c0.373-0.885-0.391-1.933-1.225-2.164c-1.012-0.274-1.787,0.347-2.159,1.226c-0.271,0.643-0.537,1.284-0.806,1.92
				c-2.433-0.698-4.87-1.352-7.312-1.975c0.521-1.207,1.039-2.413,1.557-3.62c0.379-0.879,0.271-1.88-0.628-2.402
				c-0.751-0.438-2.022-0.249-2.399,0.63c-0.656,1.516-1.312,3.035-1.961,4.551c-0.829-0.199-1.651-0.396-2.475-0.586
				c-1.697-0.385-3.402-0.733-5.112-1.059c0.482-1.294,0.962-2.584,1.44-3.872c0.787-2.129-2.606-3.037-3.388-0.938
				c-0.521,1.396-1.036,2.794-1.55,4.187c-2.88-0.467-5.77-0.83-8.665-1.067c0.635-1.728,1.268-3.456,1.895-5.181
				c0.785-2.133-2.608-3.041-3.382-0.935c-0.716,1.961-1.437,3.923-2.156,5.885c-2.332-0.104-4.666-0.113-6.995-0.03
				c0.956-2.608,1.908-5.213,2.867-7.823c0.783-2.13-2.613-3.041-3.385-0.935c-1.097,2.998-2.198,5.989-3.297,8.986
				c-1.997,0.169-3.987,0.417-5.968,0.754C339.534,71.188,341.082,66.59,342.629,61.989z M324.563,122.415
				c-0.321-0.137-0.641-0.281-0.957-0.424c1.552-0.474,3.04-1.142,4.347-1.996c6.889-4.495,6.787-13.431,5.278-20.606
				c-0.467-2.213-3.85-1.272-3.385,0.936c1.313,6.261,1.5,13.839-4.835,17.344c-2.015,1.12-4.57,1.635-6.902,1.555
				c-6.968-3.945-13.257-9.203-18.292-15.386c-0.257-0.32-0.511-0.643-0.758-0.972c3.768-5.274,9.094-9.745,14.351-13.37
				c12.993-8.969,28.51-12.278,44.119-11.052c6.953,0.545,13.862,1.784,20.683,3.456c0.026,0.021,0.051,0.044,0.08,0.063
				c0.29,0.168,0.656,0.239,1.021,0.219c3.254,0.82,6.481,1.734,9.687,2.716c0.131,0.08,0.27,0.151,0.408,0.189
				c0.146,0.038,0.284,0.056,0.417,0.063c4.897,1.516,9.729,3.189,14.49,4.918c2.677,0.967,5.334,1.968,7.985,3.006
				c0.312,0.281,0.647,0.402,0.981,0.39c7.317,2.892,14.537,6.039,21.63,9.43c-12.063,5.931-24.671,11.171-37.55,15.398
				c-0.386-0.007-0.737,0.125-1.033,0.332c-7.752,2.509-15.597,4.653-23.476,6.346C356.701,128.439,340.034,128.983,324.563,122.415
				z M412.584,116.325c-0.111,0.207-0.224,0.417-0.34,0.624c-0.276-0.056-0.547-0.112-0.819-0.171
				C411.809,116.627,412.2,116.477,412.584,116.325z M403.431,119.74c-0.156,0.399-0.314,0.801-0.471,1.203
				c-0.402-0.203-0.805-0.407-1.202-0.611C402.317,120.14,402.871,119.94,403.431,119.74z M440.646,103.149
				c0.012-0.092,0.009-0.18-0.003-0.272c0.012-0.085,0.015-0.177,0.003-0.263c0.254-9.095,5.49-17.517,13.032-22.209
				c-3.451,6.974-5.541,14.826-5.721,22.472c-0.175,7.563,2.149,15.638,5.713,22.598C445.907,120.825,440.89,112.26,440.646,103.149
				z"/>
			<circle fill="#262D35" cx="315.837" cy="95.676" r="4.184"/>
			<path fill="#262D35" d="M356.154,91.663c-3.853,0.809-7.679,1.96-11.365,3.333c-2.101,0.786-1.19,4.18,0.936,3.387
				c5.648-2.107,11.823-4.029,17.886-4.201c1.274-0.036,3.018-0.036,4.038,0.867c1.317,1.157-0.608,4.654-1.011,5.748
				c-1.077,2.889-8.538,19.073-12.886,12.802c-1.285-1.845-4.323-0.09-3.033,1.772c4.592,6.611,10.657,1.32,14.105-3.489
				c2.86-3.998,4.81-8.723,6.315-13.368c0.681-2.102,0.504-4.284-1.005-5.948C367.016,89.136,359.968,90.862,356.154,91.663z"/>
		</g>
	</g>
	<g>
		<g>
			<path fill="#262D35" d="M197.087,74.002c-0.704-2.004-3.355-2.004-4.063,0c-7.18,20.425-14.367,40.85-21.548,61.274
				c-0.901,2.568,3.163,3.66,4.063,1.119c2.358-6.706,4.716-13.413,7.077-20.114c8.294,0,16.59,0,24.884,0
				c2.357,6.701,4.716,13.408,7.075,20.114c0.896,2.541,4.965,1.449,4.06-1.119C211.455,114.852,204.271,94.427,197.087,74.002z
				 M184.095,112.067c3.655-10.391,7.306-20.779,10.962-31.168c3.655,10.389,7.31,20.777,10.96,31.168
				C198.712,112.067,191.4,112.067,184.095,112.067z"/>
			<path fill="#262D35" d="M261.965,100.203c0-9.246,0-18.496,0-27.738c0-2.721-4.21-2.721-4.21,0c0,8.357,0,16.717,0,25.072
				c0,5.847,0.586,11.989-0.337,17.791c-0.729,4.586-2.282,9.256-5.317,12.839c-4.147,4.902-11.555,6.175-17.326,3.553
				c-6.886-3.124-9.662-12.287-9.662-19.329c0-13.313,0-26.618,0-39.926c0-2.721-4.213-2.721-4.213,0c0,8.277,0,16.556,0,24.832
				c0,5.978-0.461,12.141,0.216,18.101c1.122,9.888,6.172,19.983,16.943,21.599c12.053,1.811,20.158-6.921,22.865-17.798
				C262.472,112.99,261.965,106.535,261.965,100.203z"/>
		</g>
	</g>
	<g>
		<g>
			<line fill="#262D35" x1="149.346" y1="61.164" x2="156.119" y2="50.501"/>
			<path fill="#262D35" d="M151.391,62.356c2.258-3.554,4.516-7.106,6.771-10.667c1.645-2.583-2.454-4.956-4.084-2.387
				c-2.261,3.553-4.515,7.113-6.772,10.667C145.659,62.551,149.76,64.928,151.391,62.356L151.391,62.356z"/>
		</g>
	</g>
	<g>
		<g>
			<line fill="#262D35" x1="71.644" y1="135.599" x2="78.418" y2="124.93"/>
			<path fill="#262D35" d="M73.686,136.789c2.261-3.552,4.519-7.111,6.773-10.664c1.643-2.586-2.455-4.958-4.083-2.391
				c-2.261,3.556-4.52,7.116-6.776,10.669C67.961,136.991,72.057,139.36,73.686,136.789L73.686,136.789z"/>
		</g>
	</g>
	<g>
		<g>
			<line fill="#262D35" x1="126.688" y1="135.599" x2="119.917" y2="124.93"/>
			<path fill="#262D35" d="M128.731,134.403c-2.259-3.553-4.515-7.113-6.775-10.669c-1.63-2.567-5.726-0.195-4.086,2.391
				c2.259,3.553,4.519,7.112,6.772,10.664C126.275,139.36,130.371,136.991,128.731,134.403L128.731,134.403z"/>
		</g>
	</g>
	<path fill="#262D35" d="M130.005,76.636h-0.033c1.337-2.648,2.672-5.294,4.004-7.941c1.372-2.716-2.71-5.113-4.083-2.388
		c-1.488,2.947-2.974,5.892-4.459,8.835c-0.264,0.523-0.382,1.042-0.243,1.494c0.128,0.411,0.477,1.019,0.891,1.488
		c3.542,4.033,5.814,11.711,5.918,18.433c0.281,18.025-15.076,32.402-32.678,32.678c-18.02,0.281-32.401-15.078-32.674-32.678
		c0.109-6.993,2.057-13.654,6.095-18.717c0.112-0.139,0.207-0.286,0.313-0.429c0.616-0.844,0.305-1.746,0.043-2.27
		c-1.482-2.943-2.972-5.888-4.46-8.835c-1.372-2.726-5.452-0.328-4.079,2.388c1.334,2.657,2.674,5.308,4.011,7.965
		c-3.751,5.897-5.757,12.889-5.87,19.897c0.267,17.106,11.916,31.784,28.598,35.737c16.672,3.95,33.964-5.068,41.234-20.304
		C137.973,100.591,136.649,86.998,130.005,76.636z"/>
	<path fill="#262D35" d="M295.158,148.307c48.974,0,97.948,0,146.926,0c5.874,0,11.746,0,17.619,0c2.546,0,2.546-3.947,0-3.947
		c-48.977,0-97.951,0-146.929,0c-5.871,0-11.743,0-17.616,0C292.61,144.359,292.61,148.307,295.158,148.307L295.158,148.307z"/>
</g>
</svg>
