<?xml version="1.0" encoding="utf-8"?>
<!-- Generator: Adobe Illustrator 16.0.0, SVG Export Plug-In . SVG Version: 6.00 Build 0)  -->
<!DOCTYPE svg PUBLIC "-//W3C//DTD SVG 1.1//EN" "http://www.w3.org/Graphics/SVG/1.1/DTD/svg11.dtd">
<svg version="1.1" xmlns="http://www.w3.org/2000/svg" xmlns:xlink="http://www.w3.org/1999/xlink" x="0px" y="0px" width="517px"
	 height="196px" viewBox="0 0 517 196" enable-background="new 0 0 517 196" xml:space="preserve">
<g id="Calque_1" display="none">
</g>
<g id="Calque_2">
	<g>
		<path fill="#262D35" d="M24.466,149.86c0,15.655,12.691,28.347,28.347,28.347h412.402c15.655,0,28.347-12.691,28.347-28.347
			V48.139c0-15.655-12.691-28.346-28.347-28.346H52.813c-15.655,0-28.347,12.691-28.347,28.346V149.86z"/>
	</g>
	<g>
		<path fill="#FFFFFF" d="M465.315,127.468c-4.898-7.59-8.001-16.917-8.094-25.947c-0.091-8.884,3.377-18.467,8.094-25.947
			c0.793-1.257-0.527-3.162-2.009-2.611c-11.069,4.109-19.141,14.18-20.432,25.785c-7.635-3.773-15.482-7.276-23.479-10.438
			c-7.922-9.764-19.152-17.604-30.832-21.981c-13.316-4.992-28.909-3.594-41.756-10.232c-1.058-0.547-2.234-0.061-2.612,1.063
			c-1.988,5.91-3.976,11.821-5.963,17.732c-1.688,0.391-3.37,0.834-5.045,1.363c-11.239,3.551-21.514,10.246-29.554,18.834
			c-1.616,1.729-3.205,3.564-4.522,5.537c-0.332,0.496-0.332,1.298,0,1.795c11.979,17.93,34.882,27.564,55.812,27.725
			c15.755,0.121,31.604-4.235,46.458-9.086c0.263-0.085,0.523-0.177,0.785-0.264c1.979,1.012,3.961,2.022,5.94,3.033
			c1.101,0.563,2.18,0.039,2.613-1.063c0.577-1.473,1.155-2.943,1.733-4.416c1.828,0.384,3.656,0.768,5.483,1.15
			c0.77,0.162,1.61-0.088,2.01-0.816c0.795-1.453,1.59-2.907,2.387-4.361c1.892,0.245,3.785,0.49,5.678,0.734
			c0.832,0.108,1.445-0.635,1.716-1.305c0.416-1.036,0.832-2.071,1.247-3.107c1.625-0.031,3.25-0.063,4.875-0.094
			c1.88-0.035,3.065-3.42,3.863-4.778c1.056-0.489,2.107-0.987,3.155-1.493c1.253,11.643,9.168,21.904,20.438,25.802
			C464.775,130.588,466.139,128.743,465.315,127.468z M346.956,60.096c11.448,5.179,24.837,5.185,36.77,8.404
			c10.396,2.807,20.519,9.188,28.391,17.04c-4.917-1.795-9.878-3.459-14.873-4.965c0.279-0.666,0.559-1.33,0.839-1.995
			c0.376-0.896-0.398-1.956-1.242-2.188c-1.026-0.281-1.813,0.35-2.188,1.242c-0.271,0.648-0.544,1.297-0.816,1.943
			c-2.463-0.705-4.933-1.37-7.407-1.998c0.526-1.224,1.053-2.447,1.579-3.67c0.383-0.891,0.273-1.9-0.638-2.434
			c-0.759-0.444-2.05-0.253-2.434,0.638c-0.661,1.536-1.322,3.073-1.984,4.61c-0.836-0.199-1.671-0.402-2.508-0.592
			c-1.719-0.391-3.445-0.746-5.175-1.075c0.484-1.308,0.971-2.616,1.456-3.924c0.8-2.155-2.64-3.075-3.431-0.945
			c-0.524,1.413-1.049,2.826-1.573,4.239c-2.917-0.473-5.844-0.84-8.773-1.082c0.641-1.75,1.281-3.5,1.921-5.249
			c0.79-2.159-2.647-3.081-3.43-0.945c-0.728,1.987-1.455,3.974-2.183,5.962c-2.365-0.106-4.73-0.115-7.092-0.029
			c0.97-2.643,1.938-5.284,2.908-7.926c0.792-2.158-2.646-3.08-3.431-0.945c-1.112,3.033-2.226,6.065-3.339,9.099
			c-2.021,0.173-4.038,0.425-6.048,0.766C343.822,69.415,345.389,64.755,346.956,60.096z M328.652,121.311
			c-0.324-0.138-0.646-0.285-0.968-0.429c1.574-0.477,3.08-1.154,4.406-2.021c6.979-4.557,6.873-13.606,5.345-20.874
			c-0.472-2.244-3.9-1.291-3.43,0.945c1.334,6.343,1.519,14.02-4.895,17.57c-2.044,1.133-4.63,1.656-6.995,1.574
			c-7.063-3.996-13.428-9.324-18.531-15.586c-0.262-0.322-0.52-0.649-0.77-0.982c3.818-5.349,9.215-9.875,14.539-13.549
			c13.167-9.083,28.882-12.439,44.699-11.195c7.043,0.555,14.041,1.811,20.95,3.504c0.029,0.019,0.051,0.041,0.082,0.059
			c0.293,0.172,0.666,0.246,1.036,0.224c3.293,0.831,6.565,1.757,9.813,2.752c0.135,0.082,0.272,0.153,0.416,0.192
			c0.145,0.039,0.284,0.057,0.42,0.063c4.959,1.539,9.858,3.232,14.682,4.979c2.709,0.98,5.405,1.997,8.09,3.048
			c0.311,0.287,0.654,0.409,0.992,0.396c7.413,2.929,14.728,6.12,21.914,9.556c-12.221,6.005-24.994,11.316-38.042,15.598
			c-0.391-0.008-0.747,0.122-1.046,0.336c-7.854,2.541-15.8,4.715-23.783,6.43C361.21,127.415,344.33,127.967,328.652,121.311z
			 M417.83,115.143c-0.116,0.212-0.231,0.423-0.347,0.634c-0.277-0.059-0.555-0.116-0.831-0.174
			C417.045,115.45,417.438,115.296,417.83,115.143z M408.554,118.603c-0.16,0.406-0.319,0.813-0.479,1.221
			c-0.405-0.207-0.81-0.414-1.214-0.621C407.426,119.006,407.988,118.803,408.554,118.603z M446.26,101.796
			c0.007-0.092,0.005-0.184-0.005-0.275c0.01-0.09,0.012-0.18,0.005-0.271c0.253-9.212,5.562-17.741,13.202-22.498
			c-3.499,7.064-5.615,15.022-5.797,22.769c-0.179,7.657,2.181,15.842,5.788,22.889C451.585,119.704,446.503,111.026,446.26,101.796
			z"/>
		<circle fill="#FFFFFF" cx="319.817" cy="94.223" r="4.237"/>
		<path fill="#FFFFFF" d="M360.659,90.159c-3.901,0.82-7.777,1.984-11.514,3.377c-2.129,0.795-1.208,4.233,0.946,3.43
			c5.724-2.134,11.982-4.084,18.119-4.256c1.294-0.035,3.06-0.033,4.095,0.877c1.331,1.172-0.616,4.717-1.028,5.822
			c-1.091,2.927-8.646,19.325-13.055,12.973c-1.298-1.871-4.382-0.095-3.07,1.795c4.649,6.699,10.801,1.34,14.289-3.538
			c2.896-4.049,4.875-8.833,6.4-13.543c0.688-2.124,0.509-4.339-1.021-6.023C371.664,87.597,364.521,89.347,360.659,90.159z"/>
	</g>
	<g>
		<path fill="#FFFFFF" d="M199.511,72.267c-0.713-2.029-3.401-2.029-4.115,0c-7.277,20.691-14.555,41.383-21.832,62.074
			c-0.915,2.604,3.209,3.713,4.116,1.135c2.39-6.793,4.778-13.586,7.167-20.379c8.404,0,16.809,0,25.213,0
			c2.389,6.793,4.777,13.586,7.167,20.379c0.907,2.578,5.031,1.469,4.115-1.135C214.065,113.649,206.788,92.958,199.511,72.267z
			 M186.349,110.829c3.701-10.525,7.402-21.051,11.104-31.576c3.702,10.525,7.403,21.051,11.105,31.576
			C201.155,110.829,193.751,110.829,186.349,110.829z"/>
		<path fill="#FFFFFF" d="M265.237,98.811c0-9.367,0-18.735,0-28.103c0-2.752-4.268-2.752-4.268,0c0,8.469,0,16.937,0,25.404
			c0,5.918,0.598,12.141-0.338,18.021c-0.738,4.646-2.313,9.375-5.389,13.008c-4.205,4.964-11.701,6.256-17.555,3.6
			c-6.975-3.166-9.785-12.452-9.785-19.587c0-13.481,0-26.964,0-40.446c0-2.752-4.269-2.752-4.269,0c0,8.387,0,16.771,0,25.158
			c0,6.057-0.467,12.299,0.218,18.337c1.138,10.018,6.256,20.244,17.166,21.882c12.211,1.834,20.42-7.014,23.166-18.032
			C265.751,111.767,265.237,105.223,265.237,98.811z"/>
	</g>
	<g>
		<line fill="#FFFFFF" x1="151.146" y1="59.26" x2="158.007" y2="48.454"/>
		<path fill="#FFFFFF" d="M153.216,60.47c2.287-3.602,4.574-7.204,6.861-10.807c1.662-2.618-2.488-5.021-4.141-2.42
			c-2.287,3.603-4.574,7.206-6.861,10.809C147.413,60.669,151.563,63.072,153.216,60.47L153.216,60.47z"/>
	</g>
	<g>
		<line fill="#FFFFFF" x1="72.427" y1="134.667" x2="79.288" y2="123.86"/>
		<path fill="#FFFFFF" d="M74.497,135.878c2.286-3.603,4.574-7.205,6.86-10.809c1.663-2.617-2.487-5.021-4.14-2.419
			c-2.287,3.602-4.574,7.205-6.861,10.808C68.693,136.075,72.845,138.479,74.497,135.878L74.497,135.878z"/>
	</g>
	<g>
		<line fill="#FFFFFF" x1="128.189" y1="134.667" x2="121.327" y2="123.86"/>
		<path fill="#FFFFFF" d="M130.26,133.458c-2.288-3.603-4.574-7.206-6.862-10.808c-1.651-2.603-5.803-0.198-4.14,2.419
			c2.287,3.604,4.575,7.206,6.862,10.809C127.771,138.479,131.923,136.075,130.26,133.458L130.26,133.458z"/>
	</g>
	<path fill="#FFFFFF" d="M131.551,74.933h-0.032c1.352-2.681,2.704-5.362,4.057-8.044c1.389-2.753-2.748-5.18-4.141-2.42
		c-1.506,2.985-3.01,5.971-4.516,8.954c-0.266,0.527-0.385,1.054-0.246,1.51c0.129,0.42,0.482,1.031,0.902,1.51
		c3.589,4.083,5.891,11.864,5.996,18.675c0.285,18.258-15.275,32.827-33.104,33.104c-18.258,0.285-32.826-15.275-33.104-33.104
		c0.109-7.086,2.082-13.833,6.176-18.962c0.111-0.142,0.21-0.291,0.316-0.437c0.621-0.855,0.309-1.769,0.043-2.296
		c-1.506-2.983-3.011-5.969-4.517-8.954c-1.392-2.76-5.528-0.333-4.14,2.42c1.356,2.69,2.713,5.378,4.068,8.068
		c-3.799,5.975-5.832,13.057-5.943,20.16c0.27,17.325,12.068,32.199,28.969,36.203c16.889,4,34.41-5.136,41.775-20.57
		C139.622,99.203,138.283,85.433,131.551,74.933z"/>
	<g>
		<g>
			<path fill="#FFFFFF" d="M298.863,147.543c49.617,0,99.234,0,148.852,0c5.949,0,11.899,0,17.85,0c2.579,0,2.579-4,0-4
				c-49.617,0-99.234,0-148.852,0c-5.949,0-11.899,0-17.85,0C296.284,143.543,296.284,147.543,298.863,147.543L298.863,147.543z"/>
		</g>
	</g>
</g>
</svg>
