<?xml version="1.0" encoding="utf-8"?>
<!-- Generator: Adobe Illustrator 16.0.0, SVG Export Plug-In . SVG Version: 6.00 Build 0)  -->
<!DOCTYPE svg PUBLIC "-//W3C//DTD SVG 1.1//EN" "http://www.w3.org/Graphics/SVG/1.1/DTD/svg11.dtd">
<svg version="1.1" xmlns="http://www.w3.org/2000/svg" xmlns:xlink="http://www.w3.org/1999/xlink" x="0px" y="0px" width="517px"
	 height="196px" viewBox="0 0 517 196" enable-background="new 0 0 517 196" xml:space="preserve">
<g id="Calque_1" display="none">
</g>
<g id="Calque_2">
	<path fill="#FB7051" d="M462.75,179.213H54.251c-16.706,0-30.299-13.592-30.299-30.299V47.084
		c0-16.707,13.593-30.298,30.299-30.298H462.75c16.705,0,30.298,13.592,30.298,30.298v101.83
		C493.048,165.621,479.455,179.213,462.75,179.213z M54.251,22.845c-13.366,0-24.238,10.874-24.238,24.239v101.83
		c0,13.367,10.872,24.24,24.238,24.24H462.75c13.365,0,24.238-10.873,24.238-24.24V47.084c0-13.365-10.873-24.239-24.238-24.239
		H54.251z"/>
	<g>
		<g>
			<path fill="#FB7051" d="M458.945,127.324c-4.832-7.49-7.897-16.697-7.986-25.611c-0.095-8.766,3.332-18.229,7.986-25.611
				c0.783-1.24-0.521-3.121-1.982-2.58c-10.928,4.061-18.894,14-20.168,25.455c-7.532-3.727-15.282-7.182-23.174-10.303
				c-7.819-9.639-18.91-17.373-30.438-21.698c-13.143-4.926-28.536-3.548-41.216-10.101c-1.042-0.542-2.204-0.06-2.58,1.049
				c-1.959,5.837-3.921,11.668-5.882,17.501c-1.667,0.387-3.329,0.826-4.978,1.348c-11.099,3.502-21.238,10.115-29.177,18.59
				c-1.592,1.707-3.16,3.518-4.461,5.463c-0.33,0.492-0.33,1.283,0,1.773c11.822,17.699,34.431,27.213,55.087,27.367
				c15.551,0.121,31.197-4.18,45.861-8.969c0.258-0.082,0.515-0.172,0.774-0.262c1.95,1.002,3.91,2,5.863,2.996
				c1.085,0.553,2.149,0.039,2.582-1.047c0.565-1.459,1.136-2.906,1.707-4.359c1.808,0.379,3.609,0.754,5.415,1.135
				c0.757,0.158,1.586-0.09,1.982-0.805c0.783-1.436,1.571-2.871,2.355-4.305c1.869,0.238,3.737,0.48,5.604,0.721
				c0.818,0.109,1.425-0.627,1.694-1.287c0.409-1.023,0.819-2.041,1.229-3.066c1.606-0.027,3.209-0.061,4.811-0.094
				c1.86-0.035,3.029-3.375,3.814-4.711c1.044-0.488,2.083-0.979,3.119-1.479c1.235,11.492,9.047,21.623,20.173,25.471
				C458.415,130.406,459.755,128.582,458.945,127.324z M342.115,60.825c11.301,5.11,24.514,5.119,36.296,8.297
				c10.261,2.773,20.254,9.068,28.024,16.818c-4.856-1.77-9.75-3.416-14.683-4.902c0.278-0.654,0.551-1.311,0.825-1.965
				c0.373-0.885-0.391-1.932-1.225-2.164c-1.012-0.273-1.787,0.348-2.159,1.227c-0.271,0.643-0.537,1.283-0.806,1.92
				c-2.433-0.699-4.87-1.352-7.312-1.975c0.521-1.207,1.039-2.414,1.557-3.621c0.379-0.879,0.271-1.879-0.628-2.402
				c-0.751-0.438-2.022-0.248-2.399,0.631c-0.656,1.516-1.312,3.035-1.961,4.551c-0.829-0.199-1.651-0.396-2.475-0.586
				c-1.697-0.385-3.402-0.734-5.112-1.059c0.482-1.295,0.962-2.584,1.44-3.873c0.787-2.128-2.606-3.037-3.388-0.937
				c-0.521,1.396-1.036,2.794-1.55,4.187c-2.88-0.467-5.77-0.83-8.665-1.068c0.635-1.727,1.268-3.456,1.895-5.18
				c0.785-2.133-2.608-3.041-3.382-0.935c-0.716,1.961-1.437,3.923-2.156,5.884c-2.332-0.104-4.666-0.113-6.995-0.029
				c0.956-2.609,1.908-5.213,2.867-7.824c0.783-2.13-2.613-3.041-3.385-0.935c-1.097,2.998-2.198,5.989-3.297,8.987
				c-1.997,0.168-3.987,0.416-5.968,0.754C339.021,70.024,340.568,65.425,342.115,60.825z M324.05,121.25
				c-0.321-0.137-0.641-0.281-0.957-0.424c1.552-0.473,3.04-1.141,4.347-1.996c6.889-4.494,6.787-13.43,5.278-20.605
				c-0.467-2.213-3.85-1.273-3.385,0.936c1.313,6.26,1.5,13.838-4.835,17.344c-2.015,1.119-4.57,1.635-6.902,1.555
				c-6.968-3.945-13.257-9.203-18.292-15.387c-0.257-0.32-0.511-0.643-0.758-0.971c3.768-5.275,9.094-9.746,14.351-13.371
				c12.993-8.969,28.51-12.277,44.119-11.051c6.953,0.545,13.862,1.783,20.683,3.455c0.026,0.021,0.051,0.045,0.08,0.063
				c0.29,0.168,0.656,0.24,1.021,0.219c3.254,0.82,6.481,1.734,9.687,2.717c0.131,0.08,0.27,0.15,0.408,0.189
				c0.146,0.037,0.284,0.055,0.417,0.063c4.897,1.516,9.729,3.189,14.49,4.918c2.677,0.967,5.334,1.967,7.985,3.006
				c0.312,0.281,0.647,0.402,0.981,0.389c7.317,2.893,14.537,6.039,21.63,9.43c-12.063,5.932-24.671,11.172-37.55,15.398
				c-0.386-0.006-0.737,0.125-1.033,0.332c-7.752,2.51-15.597,4.654-23.476,6.346C356.188,127.275,339.521,127.818,324.05,121.25z
				 M412.07,115.16c-0.111,0.207-0.224,0.418-0.34,0.625c-0.276-0.057-0.547-0.113-0.819-0.172
				C411.295,115.463,411.687,115.313,412.07,115.16z M402.917,118.576c-0.156,0.398-0.314,0.801-0.471,1.203
				c-0.402-0.203-0.805-0.408-1.202-0.611C401.804,118.975,402.357,118.775,402.917,118.576z M440.133,101.984
				c0.012-0.092,0.009-0.18-0.003-0.271c0.012-0.086,0.015-0.178,0.003-0.264c0.254-9.094,5.49-17.516,13.032-22.209
				c-3.451,6.975-5.541,14.826-5.721,22.473c-0.175,7.563,2.149,15.637,5.713,22.598
				C445.394,119.66,440.376,111.096,440.133,101.984z"/>
			<path fill="#FB7051" d="M315.323,90.328c-2.312,0-4.182,1.873-4.182,4.182s1.87,4.186,4.182,4.186
				c2.311,0,4.187-1.877,4.187-4.186S317.634,90.328,315.323,90.328z"/>
			<path fill="#FB7051" d="M355.641,90.498c-3.853,0.809-7.679,1.961-11.365,3.334c-2.101,0.785-1.19,4.18,0.936,3.387
				c5.648-2.107,11.823-4.029,17.886-4.201c1.274-0.037,3.018-0.037,4.038,0.867c1.317,1.156-0.608,4.654-1.011,5.748
				c-1.077,2.889-8.538,19.072-12.886,12.801c-1.285-1.844-4.323-0.09-3.033,1.773c4.592,6.611,10.657,1.32,14.105-3.49
				c2.86-3.998,4.81-8.723,6.315-13.367c0.681-2.102,0.504-4.285-1.005-5.949C366.502,87.971,359.454,89.697,355.641,90.498z"/>
		</g>
	</g>
	<g>
		<g>
			<path fill="#FB7051" d="M196.573,72.838c-0.704-2.004-3.355-2.004-4.063,0c-7.18,20.424-14.367,40.85-21.548,61.273
				c-0.901,2.568,3.163,3.66,4.063,1.119c2.358-6.705,4.716-13.412,7.077-20.113c8.294,0,16.59,0,24.884,0
				c2.357,6.701,4.716,13.408,7.075,20.113c0.896,2.541,4.965,1.449,4.06-1.119C210.941,113.688,203.758,93.262,196.573,72.838z
				 M183.581,110.902c3.655-10.391,7.306-20.779,10.962-31.168c3.655,10.389,7.31,20.777,10.96,31.168
				C198.198,110.902,190.887,110.902,183.581,110.902z"/>
			<path fill="#FB7051" d="M261.451,99.039c0-9.246,0-18.496,0-27.738c0-2.721-4.21-2.721-4.21,0c0,8.357,0,16.717,0,25.072
				c0,5.846,0.586,11.988-0.337,17.791c-0.729,4.586-2.282,9.256-5.317,12.838c-4.147,4.902-11.555,6.176-17.326,3.553
				c-6.886-3.123-9.662-12.287-9.662-19.328c0-13.313,0-26.619,0-39.926c0-2.721-4.213-2.721-4.213,0c0,8.277,0,16.555,0,24.832
				c0,5.977-0.461,12.141,0.216,18.1c1.122,9.889,6.172,19.984,16.943,21.6c12.053,1.811,20.158-6.922,22.865-17.799
				C261.958,111.826,261.451,105.371,261.451,99.039z"/>
		</g>
	</g>
	<g>
		<g>
			<line fill="#FB7051" x1="148.832" y1="60" x2="155.605" y2="49.336"/>
			<path fill="#FB7051" d="M150.877,61.192c2.258-3.554,4.516-7.106,6.771-10.667c1.645-2.583-2.454-4.956-4.084-2.387
				c-2.261,3.553-4.515,7.113-6.772,10.667C145.146,61.386,149.246,63.763,150.877,61.192L150.877,61.192z"/>
		</g>
	</g>
	<g>
		<g>
			<line fill="#FB7051" x1="71.13" y1="134.434" x2="77.904" y2="123.766"/>
			<path fill="#FB7051" d="M73.172,135.625c2.261-3.553,4.519-7.111,6.773-10.664c1.643-2.586-2.455-4.959-4.083-2.391
				c-2.261,3.555-4.52,7.115-6.776,10.668C67.447,135.826,71.543,138.195,73.172,135.625L73.172,135.625z"/>
		</g>
	</g>
	<g>
		<g>
			<line fill="#FB7051" x1="126.174" y1="134.434" x2="119.403" y2="123.766"/>
			<path fill="#FB7051" d="M128.218,133.238c-2.259-3.553-4.515-7.113-6.775-10.668c-1.63-2.568-5.726-0.195-4.086,2.391
				c2.259,3.553,4.519,7.111,6.772,10.664C125.762,138.195,129.857,135.826,128.218,133.238L128.218,133.238z"/>
		</g>
	</g>
	<path fill="#FB7051" d="M129.491,75.471h-0.033c1.337-2.648,2.672-5.293,4.004-7.941c1.372-2.716-2.71-5.113-4.083-2.388
		c-1.488,2.947-2.974,5.891-4.459,8.834c-0.264,0.523-0.382,1.043-0.243,1.494c0.128,0.412,0.477,1.02,0.891,1.488
		c3.542,4.033,5.814,11.711,5.918,18.434c0.281,18.025-15.076,32.402-32.678,32.678c-18.02,0.281-32.401-15.078-32.674-32.678
		c0.109-6.994,2.057-13.654,6.095-18.717c0.112-0.139,0.207-0.287,0.313-0.43c0.616-0.844,0.305-1.746,0.043-2.27
		c-1.482-2.943-2.972-5.887-4.46-8.834c-1.372-2.726-5.452-0.328-4.079,2.388c1.334,2.657,2.674,5.308,4.011,7.964
		c-3.751,5.898-5.757,12.889-5.87,19.898c0.267,17.105,11.916,31.783,28.598,35.736c16.672,3.951,33.964-5.068,41.234-20.303
		C137.459,99.426,136.136,85.834,129.491,75.471z"/>
	<path fill="#FB7051" d="M294.645,147.143c48.974,0,97.948,0,146.926,0c5.874,0,11.746,0,17.619,0c2.546,0,2.546-3.947,0-3.947
		c-48.977,0-97.951,0-146.929,0c-5.871,0-11.743,0-17.616,0C292.097,143.195,292.097,147.143,294.645,147.143L294.645,147.143z"/>
</g>
</svg>
