<?xml version="1.0" encoding="utf-8"?>
<!-- Generator: Adobe Illustrator 16.0.0, SVG Export Plug-In . SVG Version: 6.00 Build 0)  -->
<!DOCTYPE svg PUBLIC "-//W3C//DTD SVG 1.1//EN" "http://www.w3.org/Graphics/SVG/1.1/DTD/svg11.dtd">
<svg version="1.1" xmlns="http://www.w3.org/2000/svg" xmlns:xlink="http://www.w3.org/1999/xlink" x="0px" y="0px" width="517px"
	 height="196px" viewBox="0 0 517 196" enable-background="new 0 0 517 196" xml:space="preserve">
<g id="Calque_1" display="none">
</g>
<g id="Calque_2">
	<g>
		<path fill="#FB7051" d="M23.952,149.86c0,15.655,12.691,28.347,28.347,28.347h412.402c15.655,0,28.347-12.691,28.347-28.347
			V48.139c0-15.656-12.691-28.347-28.347-28.347H52.299c-15.655,0-28.347,12.691-28.347,28.347V149.86z"/>
	</g>
	<g>
		<path fill="#FFFFFF" d="M461.832,129.467c-4.897-7.592-8.001-16.917-8.09-25.947c-0.094-8.882,3.375-18.468,8.09-25.95
			c0.795-1.252-0.528-3.159-2.009-2.611c-11.069,4.113-19.139,14.182-20.431,25.785c-7.635-3.771-15.482-7.272-23.48-10.438
			c-7.919-9.763-19.15-17.602-30.829-21.981c-13.318-4.991-28.909-3.591-41.759-10.23c-1.055-0.552-2.23-0.063-2.611,1.061
			c-1.99,5.911-3.975,11.822-5.962,17.73c-1.688,0.39-3.373,0.836-5.046,1.367C318.465,81.8,308.192,88.5,300.15,97.085
			c-1.613,1.729-3.201,3.567-4.521,5.537c-0.333,0.5-0.333,1.301,0,1.795c11.978,17.928,34.882,27.565,55.809,27.724
			c15.758,0.124,31.605-4.232,46.462-9.085c0.26-0.084,0.524-0.174,0.785-0.264c1.979,1.013,3.96,2.023,5.941,3.037
			c1.1,0.561,2.176,0.036,2.613-1.064c0.573-1.472,1.154-2.944,1.732-4.416c1.829,0.384,3.655,0.767,5.482,1.148
			c0.768,0.162,1.607-0.087,2.01-0.815c0.794-1.454,1.591-2.904,2.385-4.361c1.893,0.246,3.786,0.492,5.678,0.731
			c0.834,0.111,1.448-0.633,1.718-1.301c0.417-1.038,0.833-2.069,1.247-3.109c1.625-0.03,3.252-0.06,4.874-0.096
			c1.88-0.033,3.066-3.417,3.863-4.772c1.056-0.491,2.11-0.989,3.157-1.499c1.253,11.646,9.166,21.906,20.437,25.806
			C461.295,132.588,462.656,130.744,461.832,129.467z M343.474,62.097c11.447,5.177,24.835,5.183,36.771,8.403
			c10.398,2.808,20.519,9.19,28.393,17.041c-4.922-1.795-9.88-3.462-14.877-4.966c0.282-0.666,0.558-1.328,0.84-1.994
			c0.377-0.896-0.399-1.958-1.244-2.191c-1.022-0.279-1.812,0.351-2.189,1.244c-0.272,0.647-0.539,1.298-0.814,1.942
			c-2.461-0.704-4.932-1.37-7.406-1.997c0.526-1.223,1.052-2.449,1.576-3.672c0.387-0.887,0.275-1.9-0.636-2.431
			c-0.761-0.444-2.051-0.255-2.431,0.638c-0.666,1.535-1.325,3.073-1.988,4.61c-0.839-0.204-1.669-0.404-2.506-0.593
			c-1.721-0.39-3.446-0.747-5.179-1.073c0.484-1.313,0.975-2.617,1.459-3.924c0.798-2.156-2.638-3.079-3.429-0.944
			c-0.528,1.409-1.049,2.823-1.577,4.239c-2.913-0.474-5.842-0.846-8.771-1.085c0.639-1.748,1.28-3.501,1.919-5.249
			c0.791-2.162-2.645-3.082-3.43-0.944c-0.726,1.987-1.457,3.975-2.183,5.962c-2.365-0.105-4.729-0.117-7.089-0.03
			c0.972-2.644,1.937-5.285,2.905-7.929c0.79-2.158-2.647-3.079-3.43-0.944c-1.112,3.037-2.225,6.067-3.339,9.104
			c-2.024,0.171-4.038,0.42-6.047,0.765C340.342,71.414,341.906,66.755,343.474,62.097z M325.171,123.311
			c-0.323-0.138-0.647-0.285-0.969-0.429c1.574-0.477,3.079-1.157,4.403-2.021c6.981-4.556,6.877-13.605,5.348-20.878
			c-0.471-2.242-3.899-1.289-3.429,0.951c1.334,6.34,1.517,14.016-4.896,17.568c-2.043,1.133-4.631,1.654-6.996,1.574
			c-7.059-3.996-13.426-9.322-18.53-15.587c-0.261-0.321-0.522-0.647-0.768-0.98c3.815-5.348,9.212-9.874,14.538-13.549
			c13.165-9.085,28.878-12.439,44.697-11.195c7.043,0.551,14.043,1.813,20.952,3.501c0.027,0.024,0.048,0.045,0.081,0.063
			c0.293,0.171,0.665,0.246,1.034,0.222c3.297,0.83,6.57,1.76,9.816,2.751c0.133,0.081,0.27,0.153,0.414,0.192
			c0.147,0.04,0.284,0.061,0.42,0.063c4.96,1.537,9.859,3.231,14.679,4.982c2.713,0.98,5.408,1.993,8.09,3.045
			c0.313,0.288,0.66,0.411,0.995,0.399c7.413,2.926,14.728,6.118,21.916,9.553c-12.225,6.004-24.997,11.316-38.045,15.6
			c-0.388-0.009-0.746,0.123-1.047,0.335c-7.851,2.539-15.796,4.712-23.782,6.426C357.73,129.414,340.848,129.965,325.171,123.311z
			 M414.345,117.145c-0.111,0.207-0.228,0.42-0.345,0.633c-0.275-0.061-0.554-0.117-0.827-0.174
			C413.563,117.451,413.955,117.294,414.345,117.145z M405.07,120.601c-0.159,0.408-0.317,0.813-0.477,1.22
			c-0.407-0.204-0.815-0.414-1.217-0.621C403.943,121.005,404.504,120.804,405.07,120.601z M442.776,103.793
			c0.006-0.093,0.003-0.183-0.006-0.273c0.009-0.09,0.012-0.183,0.006-0.272c0.255-9.211,5.561-17.74,13.201-22.497
			c-3.495,7.065-5.614,15.021-5.797,22.77c-0.177,7.659,2.182,15.839,5.791,22.889C448.104,121.704,443.022,113.026,442.776,103.793
			z"/>
		<path fill="#FFFFFF" d="M316.331,91.983c-2.339,0-4.236,1.9-4.236,4.239c0,2.338,1.897,4.238,4.236,4.238
			c2.341,0,4.241-1.9,4.241-4.238C320.572,93.883,318.672,91.983,316.331,91.983z"/>
		<path fill="#FFFFFF" d="M357.176,92.157c-3.899,0.819-7.776,1.988-11.514,3.378c-2.128,0.797-1.208,4.233,0.947,3.429
			c5.722-2.134,11.981-4.08,18.12-4.256c1.292-0.036,3.058-0.033,4.092,0.878c1.333,1.175-0.618,4.715-1.025,5.824
			c-1.091,2.926-8.648,19.323-13.054,12.971c-1.302-1.871-4.383-0.09-3.073,1.795c4.652,6.7,10.8,1.34,14.293-3.537
			c2.892-4.05,4.87-8.833,6.396-13.542c0.687-2.126,0.509-4.341-1.022-6.025C368.18,89.597,361.039,91.348,357.176,92.157z"/>
	</g>
	<g>
		<path fill="#FFFFFF" d="M196.027,74.268c-0.714-2.029-3.398-2.029-4.113,0c-7.277,20.689-14.559,41.381-21.834,62.073
			c-0.914,2.602,3.207,3.711,4.116,1.136c2.389-6.795,4.777-13.591,7.167-20.381c8.405,0,16.811,0,25.212,0
			c2.39,6.79,4.778,13.585,7.167,20.381c0.906,2.575,5.03,1.466,4.119-1.136C210.583,115.649,203.306,94.957,196.027,74.268z
			 M182.865,112.828c3.702-10.524,7.4-21.049,11.105-31.576c3.699,10.527,7.404,21.052,11.103,31.576
			C197.67,112.828,190.266,112.828,182.865,112.828z"/>
		<path fill="#FFFFFF" d="M261.755,100.811c0-9.365,0-18.738,0-28.102c0-2.754-4.266-2.754-4.266,0c0,8.468,0,16.936,0,25.401
			c0,5.92,0.593,12.144-0.342,18.021c-0.737,4.646-2.309,9.376-5.39,13.009c-4.202,4.964-11.7,6.256-17.551,3.6
			c-6.975-3.166-9.787-12.452-9.787-19.586c0-13.483,0-26.966,0-40.446c0-2.754-4.269-2.754-4.269,0c0,8.387,0,16.771,0,25.155
			c0,6.058-0.468,12.302,0.22,18.339c1.136,10.015,6.252,20.243,17.164,21.882c12.214,1.834,20.422-7.014,23.168-18.03
			C262.27,113.763,261.755,107.223,261.755,100.811z"/>
	</g>
	<g>
		<line fill="#FFFFFF" x1="147.661" y1="61.261" x2="154.523" y2="50.455"/>
		<path fill="#FFFFFF" d="M149.732,62.469c2.288-3.6,4.575-7.203,6.862-10.806c1.663-2.62-2.488-5.024-4.14-2.422
			c-2.291,3.603-4.575,7.206-6.858,10.809C143.93,62.667,148.081,65.074,149.732,62.469L149.732,62.469z"/>
	</g>
	<g>
		<line fill="#FFFFFF" x1="68.943" y1="136.667" x2="75.809" y2="125.858"/>
		<path fill="#FFFFFF" d="M71.015,137.875c2.287-3.6,4.57-7.203,6.861-10.806c1.66-2.62-2.487-5.024-4.143-2.422
			c-2.287,3.603-4.574,7.209-6.858,10.809C65.211,138.076,69.363,140.478,71.015,137.875L71.015,137.875z"/>
	</g>
	<g>
		<line fill="#FFFFFF" x1="124.706" y1="136.667" x2="117.846" y2="125.858"/>
		<path fill="#FFFFFF" d="M126.778,135.457c-2.291-3.6-4.575-7.206-6.864-10.809c-1.648-2.602-5.804-0.198-4.141,2.422
			c2.288,3.603,4.578,7.206,6.861,10.806C124.29,140.478,128.438,138.076,126.778,135.457L126.778,135.457z"/>
	</g>
	<path fill="#FFFFFF" d="M128.066,76.932h-0.029c1.352-2.68,2.703-5.359,4.053-8.045c1.391-2.751-2.746-5.179-4.137-2.416
		c-1.508,2.982-3.013,5.968-4.518,8.95c-0.267,0.528-0.387,1.055-0.246,1.511c0.13,0.42,0.482,1.031,0.902,1.511
		c3.588,4.083,5.891,11.861,5.998,18.675c0.285,18.258-15.275,32.826-33.105,33.102c-18.258,0.285-32.826-15.272-33.104-33.102
		c0.111-7.086,2.084-13.834,6.178-18.963c0.111-0.144,0.21-0.291,0.315-0.438c0.624-0.854,0.309-1.769,0.045-2.296
		c-1.505-2.982-3.013-5.968-4.521-8.95c-1.39-2.764-5.527-0.336-4.136,2.416c1.355,2.692,2.713,5.381,4.067,8.07
		c-3.798,5.977-5.829,13.057-5.943,20.162c0.27,17.325,12.067,32.2,28.968,36.202c16.888,4.001,34.412-5.135,41.774-20.57
		C136.139,101.204,134.8,87.433,128.066,76.932z"/>
	<path fill="#FFFFFF" d="M295.381,149.545c49.616,0,99.231,0,148.85,0c5.95,0,11.9,0,17.851,0c2.577,0,2.577-3.999,0-3.999
		c-49.618,0-99.233,0-148.853,0c-5.947,0-11.896,0-17.848,0C292.803,145.546,292.803,149.545,295.381,149.545L295.381,149.545z"/>
</g>
</svg>
